<svg version="1.1" viewBox="0.0 0.0 960.0 540.0" fill="none" stroke="none" stroke-linecap="square" stroke-miterlimit="10" xmlns:xlink="http://www.w3.org/1999/xlink" xmlns="http://www.w3.org/2000/svg"><clipPath id="p.0"><path d="m0 0l960.0 0l0 540.0l-960.0 0l0 -540.0z" clip-rule="nonzero"/></clipPath><g clip-path="url(#p.0)"><path fill="#000000" fill-opacity="0.0" d="m0 0l960.0 0l0 540.0l-960.0 0z" fill-rule="evenodd"/><path fill="#000000" fill-opacity="0.0" d="m209.10236 26.538057l-154.92914 0l0 68.97638l154.92914 0z" fill-rule="evenodd"/><path fill="#ed2226" d="m67.32947 84.066246l0 -44.35937l26.4375 0l-1.09375 7.5l-14.84375 0l0 11.765625l12.921875 0l0 7.499996l-12.921875 0l0 17.59375l-10.5 0zm54.980453 0l0 -19.015625l-13.3125 0l0 19.015625l-10.5 0l0 -44.35937l10.5 0l0 17.15625l13.3125 0l0 -17.15625l10.5 0l0 44.35937l-10.5 0zm29.311432 -44.35937l0 44.35937l-10.5 0l0 -44.35937l10.5 0zm22.845718 27.406246l-4.09375 0l0 16.953125l-10.5 0l0 -44.35937l14.53125 0q9.09375 0 13.65625 3.328125q4.578125 3.328125 4.578125 10.1875q0 4.28125 -2.046875 7.140625q-2.046875 2.84375 -6.453125 4.828121l11.265625 18.875l-11.84375 0l-9.09375 -16.953125zm-4.09375 -7.234371l4.421875 0q3.515625 0 5.265625 -1.59375q1.765625 -1.609375 1.765625 -5.0625q0 -3.203125 -1.890625 -4.671875q-1.875 -1.46875 -5.78125 -1.46875l-3.78125 0l0 12.796875z" fill-rule="nonzero"/><path fill="#000000" fill-opacity="0.0" d="m196.83464 39.115486l242.4882 0l0 22.236221l-242.4882 0z" fill-rule="evenodd"/><path fill="#595959" d="m204.39714 40.688595q1.921875 0 3.296875 0.546875q1.375 0.546875 2.671875 1.6875l-1.46875 1.625q-1.09375 -0.859375 -2.140625 -1.265625q-1.046875 -0.40625 -2.25 -0.40625q-1.515625 0 -2.5 0.703125q-0.96875 0.6875 -0.96875 2.03125q0 0.84375 0.328125 1.421875q0.34375 0.5625 1.25 1.046875q0.90625 0.46875 2.640625 1.0q1.828125 0.5625 3.03125 1.21875q1.203125 0.640625 1.9375 1.78125q0.75 1.125 0.75 2.859375q0 1.671875 -0.828125 2.96875q-0.828125 1.28125 -2.390625 2.015625q-1.546875 0.734375 -3.671875 0.734375q-4.0 0 -6.546875 -2.5l1.453125 -1.625q1.171875 0.953125 2.375 1.453125q1.203125 0.484375 2.6875 0.484375q1.796875 0 2.96875 -0.875q1.1875 -0.890625 1.1875 -2.578125q0 -0.953125 -0.375 -1.578125q-0.359375 -0.625 -1.25 -1.125q-0.875 -0.515625 -2.546875 -1.015625q-2.96875 -0.890625 -4.34375 -2.15625q-1.375 -1.265625 -1.375 -3.421875q0 -1.453125 0.765625 -2.59375q0.78125 -1.15625 2.15625 -1.796875q1.390625 -0.640625 3.15625 -0.640625zm17.806946 18.953125q-1.453125 1.015625 -3.3125 1.015625q-1.875 0 -2.921875 -1.078125q-1.046875 -1.078125 -1.046875 -3.125l0 -8.90625l-2.578125 0l0 -1.984375l2.578125 0l0 -3.34375l2.578125 -0.296875l0 3.640625l3.5 0l-0.28125 1.984375l-3.21875 0l0 8.796875q0 1.140625 0.40625 1.65625q0.40625 0.515625 1.359375 0.515625q0.859375 0 1.953125 -0.578125l0.984375 1.703125zm12.396423 -2.765625q0 0.890625 0.3125 1.328125q0.3125 0.421875 0.921875 0.65625l-0.578125 1.796875q-1.15625 -0.140625 -1.859375 -0.640625q-0.6875 -0.515625 -1.03125 -1.578125q-1.484375 2.21875 -4.390625 2.21875q-2.1875 0 -3.453125 -1.234375q-1.25 -1.234375 -1.25 -3.21875q0 -2.359375 1.6875 -3.609375q1.6875 -1.265625 4.796875 -1.265625l2.28125 0l0 -1.09375q0 -1.5625 -0.765625 -2.234375q-0.75 -0.671875 -2.328125 -0.671875q-1.625 0 -3.96875 0.78125l-0.640625 -1.875q2.734375 -1.015625 5.09375 -1.015625q2.609375 0 3.890625 1.28125q1.28125 1.265625 1.28125 3.625l0 6.75zm-6.046875 1.84375q2.21875 0 3.484375 -2.296875l0 -3.390625l-1.9375 0q-4.09375 0 -4.09375 3.03125q0 1.3125 0.640625 1.984375q0.65625 0.671875 1.90625 0.671875zm18.29457 -13.5q2.015625 0 3.140625 1.203125q1.140625 1.203125 1.140625 3.3125l0 10.578125l-2.578125 0l0 -10.21875q0 -1.5625 -0.59375 -2.203125q-0.578125 -0.65625 -1.734375 -0.65625q-1.171875 0 -2.078125 0.671875q-0.890625 0.671875 -1.671875 1.9375l0 10.46875l-2.578125 0l0 -14.75l2.21875 0l0.21875 2.171875q0.78125 -1.171875 1.9375 -1.84375q1.171875 -0.671875 2.578125 -0.671875zm20.876831 -5.59375l0 20.6875l-2.265625 0l-0.25 -2.046875q-0.71875 1.125 -1.8125 1.765625q-1.09375 0.625 -2.4375 0.625q-2.640625 0 -4.109375 -2.078125q-1.4687653 -2.078125 -1.4687653 -5.578125q0 -2.265625 0.70314026 -4.03125q0.703125 -1.765625 2.015625 -2.75q1.3125 -1.0 3.078125 -1.0q2.265625 0 3.984375 1.828125l0 -7.734375l2.5625 0.3125zm-6.203125 18.984375q1.171875 0 2.0 -0.546875q0.84375 -0.546875 1.640625 -1.640625l0 -7.21875q-0.734375 -0.953125 -1.5625 -1.4375q-0.828125 -0.5 -1.859375 -0.5q-1.703125 0 -2.640625 1.4375q-0.9375 1.421875 -0.9375 4.25q0 2.84375 0.859375 4.25q0.875 1.40625 2.5 1.40625zm21.4628 -1.734375q0 0.890625 0.3125 1.328125q0.3125 0.421875 0.921875 0.65625l-0.578125 1.796875q-1.15625 -0.140625 -1.859375 -0.640625q-0.6875 -0.515625 -1.03125 -1.578125q-1.484375 2.21875 -4.390625 2.21875q-2.1875 0 -3.453125 -1.234375q-1.25 -1.234375 -1.25 -3.21875q0 -2.359375 1.6875 -3.609375q1.6875 -1.265625 4.796875 -1.265625l2.28125 0l0 -1.09375q0 -1.5625 -0.765625 -2.234375q-0.75 -0.671875 -2.328125 -0.671875q-1.625 0 -3.96875 0.78125l-0.640625 -1.875q2.734375 -1.015625 5.09375 -1.015625q2.609375 0 3.890625 1.28125q1.28125 1.265625 1.28125 3.625l0 6.75zm-6.046875 1.84375q2.21875 0 3.484375 -2.296875l0 -3.390625l-1.9375 0q-4.09375 0 -4.09375 3.03125q0 1.3125 0.640625 1.984375q0.65625 0.671875 1.90625 0.671875zm17.763336 -13.5q0.78125 0 1.453125 0.171875l-0.484375 2.515625q-0.671875 -0.171875 -1.28125 -0.171875q-1.375 0 -2.21875 1.015625q-0.828125 1.0 -1.3125 3.140625l0 8.421875l-2.578125 0l0 -14.75l2.21875 0l0.25 2.984375q0.59375 -1.640625 1.59375 -2.484375q1.015625 -0.84375 2.359375 -0.84375zm14.968048 -5.59375l0 20.6875l-2.265625 0l-0.25 -2.046875q-0.71875 1.125 -1.8125 1.765625q-1.09375 0.625 -2.4375 0.625q-2.640625 0 -4.109375 -2.078125q-1.46875 -2.078125 -1.46875 -5.578125q0 -2.265625 0.703125 -4.03125q0.703125 -1.765625 2.015625 -2.75q1.3125 -1.0 3.078125 -1.0q2.265625 0 3.984375 1.828125l0 -7.734375l2.5625 0.3125zm-6.203125 18.984375q1.171875 0 2.0 -0.546875q0.84375 -0.546875 1.640625 -1.640625l0 -7.21875q-0.734375 -0.953125 -1.5625 -1.4375q-0.828125 -0.5 -1.859375 -0.5q-1.703125 0 -2.640625 1.4375q-0.9375 1.421875 -0.9375 4.25q0 2.84375 0.859375 4.25q0.875 1.40625 2.5 1.40625zm15.525299 -13.390625q1.515625 0 2.71875 0.421875q1.203125 0.421875 2.296875 1.265625l-1.09375 1.625q-1.0 -0.65625 -1.921875 -0.953125q-0.90625 -0.3125 -1.90625 -0.3125q-1.265625 0 -2.0 0.515625q-0.71875 0.515625 -0.71875 1.421875q0 0.890625 0.6875 1.390625q0.6875 0.5 2.484375 0.984375q2.453125 0.609375 3.671875 1.6875q1.21875 1.0625 1.21875 2.90625q0 2.1875 -1.703125 3.34375q-1.6875 1.140625 -4.125 1.140625q-3.359375 0 -5.5625 -1.9375l1.375 -1.5625q1.875 1.421875 4.140625 1.421875q1.453125 0 2.296875 -0.59375q0.859375 -0.609375 0.859375 -1.640625q0 -0.765625 -0.3125 -1.21875q-0.296875 -0.46875 -1.0625 -0.8125q-0.75 -0.359375 -2.203125 -0.75q-2.359375 -0.609375 -3.40625 -1.640625q-1.046875 -1.046875 -1.046875 -2.640625q0 -1.15625 0.6875 -2.09375q0.6875 -0.9375 1.90625 -1.453125q1.21875 -0.515625 2.71875 -0.515625z" fill-rule="nonzero"/><path fill="#000000" fill-opacity="0.0" d="m196.83456 59.435696l242.48819 0l0 25.952755l-242.48819 0z" fill-rule="evenodd"/><path fill="#595959" d="m205.28769 74.3202l-3.0 0l0 8.171875l-2.65625 0l0 -19.296875l5.078125 0q3.609375 0 5.46875 1.375q1.859375 1.375 1.859375 4.09375q0 2.015625 -1.046875 3.28125q-1.03125 1.25 -3.125 1.890625l5.203125 8.65625l-3.15625 0l-4.625 -8.171875zm-0.3125 -2.046875q2.109375 0 3.171875 -0.84375q1.0625 -0.859375 1.0625 -2.765625q0 -1.796875 -1.078125 -2.59375q-1.078125 -0.796875 -3.453125 -0.796875l-2.390625 0l0 7.0l2.6875 0zm22.176315 2.40625q0 0.640625 -0.046875 1.3125l-9.40625 0q0.171875 2.4375 1.234375 3.59375q1.0625 1.140625 2.734375 1.140625q1.0625 0 1.953125 -0.296875q0.90625 -0.3125 1.890625 -0.984375l1.109375 1.53125q-2.34375 1.859375 -5.140625 1.859375q-3.078125 0 -4.8125 -2.015625q-1.71875 -2.03125 -1.71875 -5.546875q0 -2.296875 0.734375 -4.078125q0.75 -1.78125 2.140625 -2.78125q1.390625 -1.015625 3.265625 -1.015625q2.9375 0 4.5 1.9375q1.5625 1.921875 1.5625 5.34375zm-2.546875 -0.75q0 -2.1875 -0.875 -3.328125q-0.859375 -1.15625 -2.59375 -1.15625q-3.15625 0 -3.4375 4.640625l6.90625 0l0 -0.15625zm12.041321 -6.53125q1.328125 0 2.40625 0.375q1.09375 0.375 2.109375 1.21875l-1.234375 1.625q-0.78125 -0.5625 -1.53125 -0.828125q-0.734375 -0.265625 -1.640625 -0.265625q-1.78125 0 -2.78125 1.4375q-0.984375 1.421875 -0.984375 4.21875q0 2.796875 0.96875 4.140625q0.984375 1.328125 2.796875 1.328125q0.875 0 1.59375 -0.265625q0.734375 -0.265625 1.640625 -0.859375l1.171875 1.6875q-2.015625 1.625 -4.515625 1.625q-2.984375 0 -4.71875 -2.015625q-1.71875 -2.03125 -1.71875 -5.578125q0 -2.359375 0.78125 -4.109375q0.78125 -1.765625 2.21875 -2.75q1.453125 -0.984375 3.4375 -0.984375zm12.995926 0q3.109375 0 4.828125 2.078125q1.71875 2.0625 1.71875 5.625q0 2.296875 -0.78125 4.046875q-0.78125 1.75 -2.265625 2.71875q-1.484375 0.96875 -3.53125 0.96875q-3.109375 0 -4.84375 -2.078125q-1.734375 -2.078125 -1.734375 -5.625q0 -2.296875 0.78125 -4.046875q0.78125 -1.75 2.265625 -2.71875q1.484375 -0.96875 3.5625 -0.96875zm0 2.078125q-3.828125 0 -3.828125 5.65625q0 5.625 3.796875 5.625q3.8125 0 3.8125 -5.65625q0 -5.625 -3.78125 -5.625zm25.617706 -2.078125q1.828125 0 2.90625 1.21875q1.09375 1.21875 1.09375 3.296875l0 10.578125l-2.5625 0l0 -10.21875q0 -2.859375 -2.078125 -2.859375q-1.09375 0 -1.859375 0.640625q-0.75 0.625 -1.609375 1.96875l0 10.46875l-2.578125 0l0 -10.21875q0 -2.859375 -2.078125 -2.859375q-1.109375 0 -1.875 0.65625q-0.75 0.640625 -1.59375 1.953125l0 10.46875l-2.578125 0l0 -14.75l2.21875 0l0.21875 2.15625q1.65625 -2.5 4.265625 -2.5q1.359375 0 2.328125 0.703125q0.96875 0.703125 1.390625 1.953125q0.859375 -1.28125 1.90625 -1.96875q1.0625 -0.6875 2.484375 -0.6875zm23.996094 0q1.828125 0 2.90625 1.21875q1.09375 1.21875 1.09375 3.296875l0 10.578125l-2.5625 0l0 -10.21875q0 -2.859375 -2.078125 -2.859375q-1.09375 0 -1.859375 0.640625q-0.75 0.625 -1.609375 1.96875l0 10.46875l-2.578125 0l0 -10.21875q0 -2.859375 -2.078125 -2.859375q-1.109375 0 -1.875 0.65625q-0.75 0.640625 -1.59375 1.953125l0 10.46875l-2.578125 0l0 -14.75l2.21875 0l0.21875 2.15625q1.65625 -2.5 4.265625 -2.5q1.359375 0 2.328125 0.703125q0.96875 0.703125 1.390625 1.953125q0.859375 -1.28125 1.90625 -1.96875q1.0625 -0.6875 2.484375 -0.6875zm20.324219 7.28125q0 0.640625 -0.046875 1.3125l-9.40625 0q0.171875 2.4375 1.234375 3.59375q1.0625 1.140625 2.734375 1.140625q1.0625 0 1.953125 -0.296875q0.90625 -0.3125 1.890625 -0.984375l1.109375 1.53125q-2.34375 1.859375 -5.140625 1.859375q-3.078125 0 -4.8125 -2.015625q-1.71875 -2.03125 -1.71875 -5.546875q0 -2.296875 0.734375 -4.078125q0.75 -1.78125 2.140625 -2.78125q1.390625 -1.015625 3.265625 -1.015625q2.9375 0 4.5 1.9375q1.5625 1.921875 1.5625 5.34375zm-2.546875 -0.75q0 -2.1875 -0.875 -3.328125q-0.859375 -1.15625 -2.59375 -1.15625q-3.15625 0 -3.4375 4.640625l6.90625 0l0 -0.15625zm13.619446 -6.53125q2.015625 0 3.140625 1.203125q1.140625 1.203125 1.140625 3.3125l0 10.578125l-2.578125 0l0 -10.21875q0 -1.5625 -0.59375 -2.203125q-0.578125 -0.65625 -1.734375 -0.65625q-1.171875 0 -2.078125 0.671875q-0.890625 0.671875 -1.671875 1.9375l0 10.46875l-2.578125 0l0 -14.75l2.21875 0l0.21875 2.171875q0.78125 -1.171875 1.9375 -1.84375q1.171875 -0.671875 2.578125 -0.671875zm20.8768 -5.59375l0 20.6875l-2.265625 0l-0.25 -2.046875q-0.71875 1.125 -1.8125 1.765625q-1.09375 0.625 -2.4375 0.625q-2.640625 0 -4.109375 -2.078125q-1.46875 -2.078125 -1.46875 -5.578125q0 -2.265625 0.703125 -4.03125q0.703125 -1.765625 2.015625 -2.75q1.3125 -1.0 3.078125 -1.0q2.265625 0 3.984375 1.828125l0 -7.734375l2.5625 0.3125zm-6.203125 18.984375q1.171875 0 2.0 -0.546875q0.84375 -0.546875 1.640625 -1.640625l0 -7.21875q-0.734375 -0.953125 -1.5625 -1.4375q-0.828125 -0.5 -1.859375 -0.5q-1.703125 0 -2.640625 1.4375q-0.9375 1.421875 -0.9375 4.25q0 2.84375 0.859375 4.25q0.875 1.40625 2.5 1.40625zm21.46283 -1.734375q0 0.890625 0.3125 1.328125q0.3125 0.421875 0.921875 0.65625l-0.578125 1.796875q-1.15625 -0.140625 -1.859375 -0.640625q-0.6875 -0.515625 -1.03125 -1.578125q-1.484375 2.21875 -4.390625 2.21875q-2.1875 0 -3.453125 -1.234375q-1.25 -1.234375 -1.25 -3.21875q0 -2.359375 1.6875 -3.609375q1.6875 -1.265625 4.796875 -1.265625l2.28125 0l0 -1.09375q0 -1.5625 -0.765625 -2.234375q-0.75 -0.671875 -2.328125 -0.671875q-1.625 0 -3.96875 0.78125l-0.640625 -1.875q2.734375 -1.015625 5.09375 -1.015625q2.609375 0 3.890625 1.28125q1.28125 1.265625 1.28125 3.625l0 6.75zm-6.046875 1.84375q2.21875 0 3.484375 -2.296875l0 -3.390625l-1.9375 0q-4.09375 0 -4.09375 3.03125q0 1.3125 0.640625 1.984375q0.65625 0.671875 1.90625 0.671875zm18.794556 0.921875q-1.453125 1.015625 -3.3125 1.015625q-1.875 0 -2.921875 -1.078125q-1.046875 -1.078125 -1.046875 -3.125l0 -8.90625l-2.578125 0l0 -1.984375l2.578125 0l0 -3.34375l2.578125 -0.296875l0 3.640625l3.5 0l-0.28125 1.984375l-3.21875 0l0 8.796875q0 1.140625 0.40625 1.65625q0.40625 0.515625 1.359375 0.515625q0.859375 0 1.953125 -0.578125l0.984375 1.703125zm5.2330627 -14.078125l0 14.75l-2.578125 0l0 -14.75l2.578125 0zm-1.3125 -7.09375q0.8125 0 1.3125 0.515625q0.5 0.5 0.5 1.25q0 0.765625 -0.5 1.25q-0.5 0.484375 -1.3125 0.484375q-0.78125 0 -1.296875 -0.484375q-0.5 -0.484375 -0.5 -1.25q0 -0.75 0.5 -1.25q0.515625 -0.515625 1.296875 -0.515625zm12.177277 6.75q3.109375 0 4.828125 2.078125q1.71875 2.0625 1.71875 5.625q0 2.296875 -0.78125 4.046875q-0.78125 1.75 -2.265625 2.71875q-1.484375 0.96875 -3.53125 0.96875q-3.109375 0 -4.84375 -2.078125q-1.734375 -2.078125 -1.734375 -5.625q0 -2.296875 0.78125 -4.046875q0.78125 -1.75 2.265625 -2.71875q1.484375 -0.96875 3.5625 -0.96875zm0 2.078125q-3.828125 0 -3.828125 5.65625q0 5.625 3.796875 5.625q3.8125 0 3.8125 -5.65625q0 -5.625 -3.78125 -5.625zm17.7583 -2.078125q2.015625 0 3.140625 1.203125q1.140625 1.203125 1.140625 3.3125l0 10.578125l-2.578125 0l0 -10.21875q0 -1.5625 -0.59375 -2.203125q-0.578125 -0.65625 -1.734375 -0.65625q-1.171875 0 -2.078125 0.671875q-0.890625 0.671875 -1.671875 1.9375l0 10.46875l-2.578125 0l0 -14.75l2.21875 0l0.21875 2.171875q0.78125 -1.171875 1.9375 -1.84375q1.171875 -0.671875 2.578125 -0.671875zm13.454956 0q1.515625 0 2.71875 0.421875q1.203125 0.421875 2.296875 1.265625l-1.09375 1.625q-1.0 -0.65625 -1.921875 -0.953125q-0.90625 -0.3125 -1.90625 -0.3125q-1.265625 0 -2.0 0.515625q-0.71875 0.515625 -0.71875 1.421875q0 0.890625 0.6875 1.390625q0.6875 0.5 2.484375 0.984375q2.453125 0.609375 3.671875 1.6875q1.21875 1.0625 1.21875 2.90625q0 2.1875 -1.703125 3.34375q-1.6875 1.140625 -4.125 1.140625q-3.359375 0 -5.5625 -1.9375l1.375 -1.5625q1.875 1.421875 4.140625 1.421875q1.453125 0 2.296875 -0.59375q0.859375 -0.609375 0.859375 -1.640625q0 -0.765625 -0.3125 -1.21875q-0.296875 -0.46875 -1.0625 -0.8125q-0.75 -0.359375 -2.203125 -0.75q-2.359375 -0.609375 -3.40625 -1.640625q-1.046875 -1.046875 -1.046875 -2.640625q0 -1.15625 0.6875 -2.09375q0.6875 -0.9375 1.90625 -1.453125q1.21875 -0.515625 2.71875 -0.515625z" fill-rule="nonzero"/></g></svg>